<svg xmlns="http://www.w3.org/2000/svg" width="40" height="40" fill="none"><path fill="#fff" d="M20 0C8.955 0 0 9.188 0 20.509 0 29.57 5.732 37.25 13.679 39.964c.111.025.225.037.339.036.74 0 1.027-.545 1.027-1.018 0-.49-.018-1.777-.027-3.49a9.147 9.147 0 0 1-2.018.24c-3.848 0-4.723-2.99-4.723-2.99-.91-2.367-2.223-3-2.223-3-1.742-1.224-.01-1.26.125-1.26h.008c2.01.179 3.063 2.125 3.063 2.125 1 1.75 2.34 2.241 3.536 2.241a5.625 5.625 0 0 0 2.285-.535c.179-1.322.697-2.224 1.268-2.742-4.437-.517-9.107-2.276-9.107-10.134 0-2.24.777-4.07 2.054-5.5-.206-.517-.893-2.607.196-5.428.146-.035.296-.05.447-.045.723 0 2.357.277 5.053 2.152a18.59 18.59 0 0 1 10.018 0c2.696-1.875 4.33-2.152 5.054-2.152.15-.005.3.01.446.045 1.09 2.821.402 4.91.196 5.428 1.277 1.438 2.054 3.268 2.054 5.5 0 7.875-4.679 9.608-9.134 10.117.714.634 1.357 1.884 1.357 3.794 0 2.741-.027 4.956-.027 5.625 0 .482.277 1.027 1.018 1.027.12 0 .24-.011.357-.036C34.277 37.25 40 29.563 40 20.51 40 9.187 31.045 0 20 0Z"/></svg>