<svg xmlns="http://www.w3.org/2000/svg" width="40" height="40" fill="none"><path fill="#fff" d="M36.8 0H3.419C1.594 0 0 1.313 0 3.115v33.457C0 38.385 1.594 40 3.418 40H36.79C38.625 40 40 38.374 40 36.572V3.115C40.01 1.312 38.625 0 36.8 0ZM12.4 33.342H6.668V15.525h5.73v17.817ZM9.731 12.816h-.04c-1.835 0-3.022-1.365-3.022-3.074 0-1.74 1.218-3.073 3.093-3.073s3.023 1.323 3.064 3.073c-.001 1.709-1.189 3.074-3.095 3.074Zm23.61 20.526h-5.73V23.6c0-2.334-.834-3.929-2.908-3.929-1.584 0-2.521 1.072-2.938 2.116-.156.375-.198.885-.198 1.407v10.148h-5.73V15.525h5.73v2.48c.834-1.188 2.136-2.897 5.168-2.897 3.761 0 6.607 2.48 6.607 7.825l-.001 10.409Z"/></svg>