<svg xmlns="http://www.w3.org/2000/svg" width="65" height="65" fill="none"><path fill="#fff" d="M0 0v65h65V0H0Zm34.821 50.491c0 6.327-3.737 9.412-9.147 9.412-4.887 0-7.724-2.53-9.163-5.584l4.974-3.011c.959 1.702 1.687 3.141 3.78 3.141 1.742 0 3.172-.785 3.172-3.839V30.179h6.384V50.49Zm14.415 9.267c-5.671 0-9.336-2.56-11.125-6.094l4.98-2.883c1.306 2.139 3.011 3.564 6.022 3.564 2.53 0 4-1.12 4-2.866 0-2.093-1.513-2.835-4.306-4.062l-1.527-.656c-4.408-1.875-7.33-4.231-7.33-9.206 0-4.58 3.49-7.926 8.944-7.926 3.884 0 6.674 1.207 8.683 4.741l-4.764 3.063c-1.048-1.876-2.177-2.612-3.927-2.612-1.789 0-2.923 1.135-2.923 2.612 0 1.833 1.134 2.574 3.752 3.709l1.526.654c5.193 2.226 8.117 4.498 8.117 9.599 0 5.499-4.318 8.363-10.122 8.363Z"/></svg>