<svg xmlns="http://www.w3.org/2000/svg" width="73" height="65" fill="none"><path fill="#fff" d="M60.019 21.067a53.002 53.002 0 0 0-2.35-.74c.13-.532.252-1.067.362-1.604 1.78-8.642.616-15.603-3.355-17.895C50.874-1.372 44.64.92 38.35 6.4a49.507 49.507 0 0 0-1.817 1.67c-.395-.38-.801-.753-1.217-1.117-6.592-5.86-13.2-8.327-17.166-6.028-3.802 2.204-4.932 8.748-3.33 16.938.16.81.34 1.616.54 2.42-.91.256-1.81.54-2.703.85C4.936 23.828 0 28.055 0 32.438c0 4.529 5.298 9.07 13.348 11.823.653.221 1.312.428 1.977.618-.216.86-.407 1.729-.573 2.608-1.521 8.048-.335 14.438 3.46 16.628 3.918 2.26 10.492-.063 16.901-5.667a39.214 39.214 0 0 0 1.52-1.404c.642.618 1.3 1.219 1.978 1.8 6.205 5.343 12.332 7.502 16.12 5.306 3.916-2.27 5.189-9.134 3.536-17.485a41.82 41.82 0 0 0-.438-1.953c.462-.137.915-.278 1.358-.424C67.55 41.514 73 37.028 73 32.442c-.003-4.404-5.098-8.658-12.981-11.375ZM40.4 8.754C45.789 4.06 50.826 2.207 53.122 3.53c2.444 1.411 3.394 7.1 1.858 14.561-.101.486-.21.97-.328 1.454a74.272 74.272 0 0 0-9.76-1.543 73.096 73.096 0 0 0-6.17-7.708 43.817 43.817 0 0 1 1.676-1.541h.003ZM21.554 36.183a91.683 91.683 0 0 0 4.361 7.533 66.31 66.31 0 0 1-6.727-1.083 69.992 69.992 0 0 1 2.366-6.45Zm0-7.34a67.45 67.45 0 0 1-2.32-6.322 70.201 70.201 0 0 1 6.62-1.136 90.116 90.116 0 0 0-2.24 3.68 95.954 95.954 0 0 0-2.065 3.778h.005Zm1.658 3.67a88.604 88.604 0 0 1 6.644-11.528 88.447 88.447 0 0 1 13.306.002 94.597 94.597 0 0 1 3.518 5.62 105.278 105.278 0 0 1 3.147 5.861 95.195 95.195 0 0 1-3.14 5.914 103.745 103.745 0 0 1-3.497 5.656c-2.167.151-4.41.235-6.691.235-2.282 0-4.482-.071-6.61-.21a88.315 88.315 0 0 1-6.682-11.55h.005Zm26.175 7.429a95.985 95.985 0 0 0 2.117-3.871 66.82 66.82 0 0 1 2.451 6.427 66.131 66.131 0 0 1-6.811 1.161c.772-1.224 1.52-2.463 2.243-3.717Zm2.087-11.097a101.566 101.566 0 0 0-2.1-3.797 91.077 91.077 0 0 0-2.22-3.654c2.329.295 4.563.686 6.657 1.165a66.758 66.758 0 0 1-2.337 6.286Zm-14.94-16.319a66.81 66.81 0 0 1 4.296 5.191 90.83 90.83 0 0 0-8.63 0 68.497 68.497 0 0 1 4.333-5.19ZM19.717 3.624c2.443-1.416 7.843.607 13.535 5.66.364.323.73.662 1.095 1.013-2.24 2.427-4.315 5-6.214 7.701a76.021 76.021 0 0 0-9.742 1.519 46.964 46.964 0 0 1-.502-2.25c-1.376-7.022-.465-12.314 1.828-13.643Zm-3.56 38.248a36.462 36.462 0 0 1-1.802-.563c-3.559-1.215-6.498-2.801-8.516-4.528-1.807-1.547-2.722-3.092-2.722-4.343 0-2.66 3.963-6.052 10.572-8.353.83-.288 1.668-.552 2.512-.791a74.894 74.894 0 0 0 3.559 9.226 76.24 76.24 0 0 0-3.603 9.352Zm16.9 14.225c-2.833 2.479-5.67 4.236-8.172 5.121-2.248.795-4.038.817-5.119.193-2.302-1.328-3.26-6.46-1.954-13.343.155-.81.332-1.62.532-2.43a73.22 73.22 0 0 0 9.838 1.426 76.12 76.12 0 0 0 6.266 7.746 33.48 33.48 0 0 1-1.39 1.287Zm3.562-3.526a69.897 69.897 0 0 1-4.392-5.26c1.398.054 2.822.081 4.27.081 1.488 0 2.96-.032 4.41-.097a66.71 66.71 0 0 1-4.288 5.276Zm18.937 4.342c-.435 2.345-1.31 3.91-2.39 4.535-2.302 1.333-7.221-.4-12.526-4.97a49.8 49.8 0 0 1-1.835-1.67 73.598 73.598 0 0 0 6.117-7.776 72.756 72.756 0 0 0 9.886-1.526c.149.602.28 1.19.395 1.768.731 3.69.836 7.028.353 9.639Zm2.646-15.588c-.399.132-.81.26-1.226.384a73.351 73.351 0 0 0-3.697-9.255 73.072 73.072 0 0 0 3.553-9.12c.746.216 1.472.444 2.17.686 6.755 2.326 10.876 5.77 10.876 8.418 0 2.825-4.45 6.49-11.676 8.887Z"/></svg>