<svg xmlns="http://www.w3.org/2000/svg" width="65" height="65" fill="none"><path fill="#fff" d="m32.88 34.442-4.163 12.15h-.013l-3.224 9.28c.228.064.444.114.672.178h.038c2.05.547 4.163.824 6.285.825a19.933 19.933 0 0 0 3.16-.228c1.4-.176 2.781-.478 4.127-.902.33-.101.66-.216.99-.33-.355-.762-1.117-2.45-1.155-2.526L32.88 34.442ZM10.259 22.915c-1.27 2.87-2.133 6.399-2.133 9.585 0 .8.038 1.6.114 2.387.876 9.039 6.716 16.63 14.74 20.046.33.14.672.279 1.015.406L12.188 22.928c-1.016-.038-1.207.025-1.93-.013Z"/><path fill="#fff" d="M54.615 22.268a23.863 23.863 0 0 0-1.917-3.377c-.203-.305-.431-.61-.647-.914a24.502 24.502 0 0 0-10.779-8.202 24.02 24.02 0 0 0-8.785-1.65 24.313 24.313 0 0 0-18.967 9.103 24.886 24.886 0 0 0-2.221 3.25c1.803.012 4.037.012 4.29.012 2.299 0 5.84-.279 5.84-.279 1.194-.076 1.321 1.663.14 1.803 0 0-1.193.14-2.513.203l7.985 23.74 4.799-14.384-3.402-9.343c-1.194-.064-2.298-.204-2.298-.204-1.194-.063-1.041-1.878.127-1.802 0 0 3.618.279 5.776.279 2.298 0 5.84-.28 5.84-.28 1.18-.075 1.333 1.664.14 1.803 0 0-1.181.14-2.502.204l7.91 23.562 2.196-7.313c1.104-2.843 1.663-5.192 1.663-7.07 0-2.705-.977-4.584-1.815-6.044-1.105-1.815-2.146-3.339-2.146-5.129 0-2.018 1.523-3.897 3.682-3.897h.279c3.326-.089 4.418 3.212 4.558 5.459v.076c.05.914.012 1.587.012 2.387 0 2.209-.419 4.71-1.663 7.845l-4.95 14.32-2.832 8.342c.229-.102.444-.203.673-.318 7.198-3.478 12.441-10.41 13.546-18.624a21.85 21.85 0 0 0 .241-3.3 24.262 24.262 0 0 0-2.26-10.258Z"/><path fill="#fff" d="M32.5 6.094a26.414 26.414 0 0 1 10.283 50.738A26.415 26.415 0 1 1 22.217 8.168 26.241 26.241 0 0 1 32.5 6.094Zm0-2.032C16.795 4.063 4.062 16.796 4.062 32.5c0 15.705 12.733 28.438 28.438 28.438 15.705 0 28.438-12.733 28.438-28.438 0-15.705-12.733-28.438-28.438-28.438Z"/></svg>