<svg xmlns="http://www.w3.org/2000/svg" width="480" height="480" fill="none"><path stroke="#fff" stroke-miterlimit="10" stroke-width="32" d="M350.05 130a46.702 46.702 0 0 1-2.42-63.42 3.867 3.867 0 0 0-.22-5.26l-44.13-44.18a3.89 3.89 0 0 0-5.5 0l-70.34 70.34a23.627 23.627 0 0 0-5.71 9.24 23.656 23.656 0 0 1-14.95 15 23.702 23.702 0 0 0-9.25 5.71L17.14 297.78a3.89 3.89 0 0 0 0 5.5l44.13 44.13a3.872 3.872 0 0 0 5.26.22 46.69 46.69 0 0 1 65.84 65.84 3.868 3.868 0 0 0 .22 5.26l44.13 44.13a3.89 3.89 0 0 0 5.5 0l180.4-180.39a23.702 23.702 0 0 0 5.71-9.25 23.657 23.657 0 0 1 14.95-15 23.628 23.628 0 0 0 9.24-5.71l70.34-70.34a3.892 3.892 0 0 0 0-5.5l-44.13-44.13a3.871 3.871 0 0 0-5.26-.22 46.699 46.699 0 0 1-63.42-2.32Z"/><path stroke="#fff" stroke-linecap="round" stroke-miterlimit="10" stroke-width="32" d="m234.5 124.44-16.51-16.51m60.53 60.53-11.01-11m55.03 55.03-11-11.01m60.53 60.53-16.51-16.51"/></svg>