<svg xmlns="http://www.w3.org/2000/svg" width="480" height="480" fill="none"><path stroke="#fff" stroke-linejoin="round" stroke-width="32" d="m41.49 31.74 368.43 368.43a37.278 37.278 0 0 1 0 52.72 37.292 37.292 0 0 1-52.72 0l-90-91.55a31.999 31.999 0 0 1-9.2-22.43v-5.53a31.991 31.991 0 0 0-9.52-22.78l-11.62-10.73a32.001 32.001 0 0 0-29.8-7.44 48.527 48.527 0 0 1-46.56-12.63l-85.43-85.44C24.39 143.68 5.74 67.15 41.49 31.74Z"/><path stroke="#fff" stroke-linecap="round" stroke-linejoin="round" stroke-width="32" d="m384 16-77.25 77.25A64.003 64.003 0 0 0 288 138.51v14.86a16.009 16.009 0 0 1-4.69 11.32L272 176m32 32 11.31-11.31a16.009 16.009 0 0 1 11.32-4.69h14.86a64.004 64.004 0 0 0 45.26-18.75L464 96m-40-40-80 80M184 352 84.28 452.28a39.999 39.999 0 0 1-56.56 0 40 40 0 0 1 0-56.56L112 312"/></svg>