<svg xmlns="http://www.w3.org/2000/svg" width="448" height="352" fill="none"><path stroke="#fff" stroke-linecap="round" stroke-linejoin="round" stroke-width="32" d="M16 336V224a64.19 64.19 0 0 1 64-64h288a64.187 64.187 0 0 1 45.199 18.801A64.187 64.187 0 0 1 432 224v112m-80-176H64V56a40.12 40.12 0 0 1 40-40h240a40.118 40.118 0 0 1 40 40v104h-32Z"/><path stroke="#fff" stroke-linecap="round" stroke-linejoin="round" stroke-width="32" d="M16 336v-8a24.07 24.07 0 0 1 24-24h368a24.067 24.067 0 0 1 24 24v8M80 160v-16a32.089 32.089 0 0 1 32-32h80a32.09 32.09 0 0 1 32 32m0 0v16m0-16a32.09 32.09 0 0 1 32-32h80a32.09 32.09 0 0 1 32 32v16"/></svg>