<svg xmlns="http://www.w3.org/2000/svg" width="448" height="448" fill="none"><path fill="#fff" d="M379.16 65.46C336.43 23.86 279.88 0 224 0 168.12 0 111.57 23.86 68.84 65.46 24.45 108.67 0 165 0 224c0 26.67 8.75 61.09 32.88 125.55C57.01 414.01 105 441 125.27 445.41c5.81 1.27 12.62 2.59 18.73 2.59a60.06 60.06 0 0 0 30-8l14-8c15.07-8.82 19.47-28.13 10.8-43.35l-86.92-152.57a31.726 31.726 0 0 0-31.772-15.797 31.724 31.724 0 0 0-11.798 4.037l-13.69 8a56.475 56.475 0 0 0-14 11.59 4.002 4.002 0 0 1-6.05.046 4.003 4.003 0 0 1-.95-2.046A114.679 114.679 0 0 1 32 224c0-50.31 21-98.48 59.16-135.61C128 52.55 176.39 32 224 32s96 20.55 132.84 56.39C395 125.52 416 173.69 416 224a114.667 114.667 0 0 1-1.68 17.91 4 4 0 0 1-7 2 56.477 56.477 0 0 0-14-11.59l-13.69-8a31.725 31.725 0 0 0-24.24-3.217 31.729 31.729 0 0 0-19.33 14.977L249.2 388.65c-8.67 15.22-4.27 34.53 10.8 43.35l14 8a60.06 60.06 0 0 0 30 8c6.11 0 12.92-1.32 18.73-2.59C343 441 391 414 415.12 349.55 439.24 285.1 448 250.67 448 224c0-59-24.45-115.33-68.84-158.54Z"/></svg>